<svg width="202" height="244" viewBox="0 0 202 244" fill="none" xmlns="http://www.w3.org/2000/svg">
<rect x="38.7542" y="38.2539" width="160.746" height="203.458" rx="14" stroke="#828A9B" stroke-width="4"/>
<rect x="22.0859" y="21.5859" width="160.746" height="203.458" rx="14" fill="#181B20" stroke="#828A9B" stroke-width="4"/>
<path d="M65.1732 33.3366C65.1732 50.6433 51.1433 64.6732 33.8366 64.6732C16.5299 64.6732 2.5 50.6433 2.5 33.3366C2.5 16.0299 16.5299 2 33.8366 2C51.1433 2 65.1732 16.0299 65.1732 33.3366Z" fill="#181B20" stroke="#828A9B" stroke-width="4" stroke-linecap="round"/>
<path d="M45.1501 22.0234L22.5227 44.6509" stroke="#828A9B" stroke-width="4" stroke-linecap="round"/>
<path d="M45.1501 44.6504L22.5227 22.023" stroke="#828A9B" stroke-width="4" stroke-linecap="round"/>
<rect opacity="0.48" x="40.0889" y="75.2148" width="79.9144" height="11.1122" rx="5.5561" fill="#828A9B"/>
<rect opacity="0.48" x="40.0889" y="101.884" width="124.74" height="11.1122" rx="5.5561" fill="#828A9B"/>
<rect opacity="0.48" x="40.0889" y="128.554" width="124.74" height="11.1122" rx="5.5561" fill="#828A9B"/>
<rect opacity="0.48" x="40.0889" y="155.223" width="107.367" height="11.1122" rx="5.5561" fill="#828A9B"/>
<rect opacity="0.48" x="40.0889" y="181.892" width="77.0615" height="11.1122" rx="5.5561" fill="#828A9B"/>
</svg>
